<?xml version="1.0" encoding="utf-8"?>
<!-- Generator: Adobe Illustrator 16.0.0, SVG Export Plug-In . SVG Version: 6.00 Build 0)  -->
<!DOCTYPE svg PUBLIC "-//W3C//DTD SVG 1.1//EN" "http://www.w3.org/Graphics/SVG/1.1/DTD/svg11.dtd">
<svg version="1.1" id="Capa_1" xmlns="http://www.w3.org/2000/svg" xmlns:xlink="http://www.w3.org/1999/xlink" x="0px" y="0px"
	 width="1200px" height="1200px" viewBox="0 0 1200 1200" enable-background="new 0 0 1200 1200" xml:space="preserve">
<g>
	<path fill="#FFFCF8" d="M1118.535,931.503c-2.618-8.63-6.036-17.655-11.492-24.619c-13.412-17.139-31.082-29.154-51.601-36.736
		c-5.528-2.047-11.079-4.054-16.926-6.194c1.277-2.729,2.245-4.958,3.324-7.114c14.022-28.021,24.284-57.398,31.121-87.949
		c11.167-49.911,14.03-100.44,11.024-151.438c-4.742-80.375-17.854-159.313-40.456-236.578
		c-10.731-36.73-21.026-73.682-38.633-107.992c-0.255-0.499-0.024-1.244-0.024-2.387c2.784-0.277,5.409-0.404,7.994-0.801
		c6.164-0.912,10.05-5.409,9.494-10.818c-0.547-5.29-4.703-8.732-10.818-8.582c-3.774,0.08-7.621,0.223-11.302,1
		c-5.345,1.143-7.819-1.262-10.382-5.703c-19.162-33.334-40.798-65.051-68.691-91.684c-16.172-15.466-32.788-31.776-52.115-42.369
		C817.42,83.216,761.229,67.224,702.787,60.192c-66.127-7.959-132.047-5.521-197.565,6.762
		c-77.86,14.597-150.498,42.99-218.754,82.9c-11.719,6.844-24.166,13.102-34.282,21.897
		c-35.952,31.305-67.221,66.899-93.347,106.881C127.17,327.1,105.808,379.716,93.253,436.249
		c-19.574,88.202-24.028,176.381-2.682,264.877c12.881,53.376,33.902,103.169,66.745,147.496
		c8.713,11.754,18.373,22.802,27.724,34.326c-6.762,6.337-13.721,12.563-20.26,19.2c-2.026,2.063-3.713,5.092-4.244,7.932
		c-3.243,17.156,6.155,28.354,24.413,29.925c6.293,0.54,10.675-0.928,14.589-6.567c5.361-7.7,12.15-14.395,18.365-21.557
		c22.905,17.521,45.453,32.867,70.622,43.376c39.018,16.299,78.539,31.384,117.882,46.856c7.986,3.158,16.159,5.822,24.749,8.892
		c-21.252,37.038-35.306,75.647-42.432,117.476c0.595,0,1.11-0.015,1.688-0.015c0.246,0.784,0.623,1.586,1.234,2.401
		c12.078,15.824,33.746,17.037,52.191,18.274c30.729,2.054,62.282-0.223,93.052-0.223c45.798,0,91.743,1.429,137.511,0.263
		c24.15-0.611,65.472-0.852,83.669-19.664c0.1-0.113,0.168-1.518,0.246-1.518c1.488,0,2.951,0,4.529,0
		c-0.277,0-0.254-7.811-0.801-11.475c-2.21-14.752-4.438-29.481-6.995-44.179c-0.702-4.036-0.238-6.382,3.743-8.53
		c12.373-6.687,22.184-16.226,30.051-27.927c1.547-2.322,4.401-4.32,7.074-5.216c17.719-5.966,35.58-11.496,53.307-17.43
		c3.195-1.063,5.139-1.167,7.265,1.87c12.745,18.226,30.979,29,51.124,37.114c30.955,12.451,63.219,16.624,96.309,14.76
		c20.715-1.156,41.298-3.646,60.935-10.991c16.196-6.074,30.646-14.774,39.949-29.836
		C1123.023,996.673,1128.718,965.044,1118.535,931.503z"/>
	<path fill="#131313" d="M533.81,383.903c-6.948-0.056-12.028,4.894-11.964,11.65c0.066,6.361,5.075,11.469,11.448,11.643
		c6.776,0.191,12.104-4.814,12.253-11.468C545.687,388.876,540.796,383.942,533.81,383.903z M883.114,381.087
		c6.614,0.23,12.237-5.052,12.349-11.619c0.11-6.749-5.053-12.023-11.802-12.078c-6.718-0.064-12.023,5.179-12.04,11.849
		C871.614,375.544,876.777,380.857,883.114,381.087z M614.75,398.29c-2.851-9.835-8.498-17.973-16.223-24.364
		c-22.481-18.63-48.634-28.965-77.583-31.201c-28.127-2.173-51.568,8.383-69.857,29.741c-11.238,13.135-10.747,27.467,1.095,39.974
		c3.637,3.839,8.034,7.336,12.718,9.739c27.688,14.197,57.028,21.684,87.715,20.645c1.955,0,3.343,0.183,4.651-0.031
		c13.222-2.276,26.918-3.133,39.529-7.273C614.374,429.737,619.941,416.159,614.75,398.29z M595.355,425.708
		c-14.494,6.797-29.953,7.487-44.336,7.4c-30.246,0.689-57.263-6.924-82.869-20.059c-17.302-8.867-19.442-23.762-6.257-37.808
		c23.634-25.173,56.569-27.601,87.299-17.013c16.4,5.647,32.672,12.254,44.58,25.555c4.962,5.52,8.915,12.428,11.644,19.368
		C609.334,413.09,605.082,421.147,595.355,425.708z M211.296,532.231c0.654-1.752,1.479-4.092,0.785-5.48
		c-0.639-1.293-3.152-2.3-4.822-2.268c-1.855,0.047-3.807,1.205-5.5,2.236c-20.399,12.436-29.412,31.337-32.32,55.771
		c2.059,2.522,3.855,6.845,6.235,7.193c4.79,0.707,5.067-3.846,5.044-7.597c0-0.223,0.031-0.445,0.048-0.675
		c1.34-20.438,9.929-36.603,27.858-47.27C209.582,533.58,210.979,533.089,211.296,532.231z M717.595,352.924
		c-2.486,4.314,1.447,6.067,4.461,8.232c9.677,6.924,19.859,13.372,28.548,21.383c24.591,22.644,27.858,50.037,10.557,78.542
		c-2.059,3.395-3.768,7.209-4.707,11.049c-8.082,33.279-3.268,65.266,10.873,95.959c4.854,10.556,12.024,20.073,16.838,30.646
		c7.622,16.734,2.284,40.798-10.992,50.839c-17.976,13.602-37.927,23.484-60.301,27.292c-13.316,2.275-27.184,3.584-39.768-2.634
		c-12.669-6.242-25.157-10.929-39.694-11.325c-26.007-0.691-36.571-14.705-30.976-40.108c2.117-9.581,6.472-18.63,9.474-28.053
		c0.635-2.006,0.556-5.1-0.606-6.583c-0.889-1.143-4.053-0.92-6.111-0.618c-1.693,0.222-3.173,1.721-4.882,2.205
		c-10.286,2.942-20.51,6.305-30.971,8.382c-5.738,1.135-10.93-1.831-14.375-7.026c-5.917-8.906-4.466-18.614,4.952-23.682
		c7.614-4.108,16.311-6.132,24.313-9.581c1.976-0.849,3.113-3.664,4.632-5.568c-2.019-1.348-4.346-4.156-6.016-3.814
		c-11.694,2.435-23.273,5.544-32.617,13.634c-8.415,7.296-10.663,16.409-6.92,26.782c4.691,12.969,12.202,19.417,23.969,19.012
		c7.308-0.254,14.581-2.03,21.83-3.33c2.76-0.492,5.425-1.57,8.026-2.356c-2.094,10.756-4.978,20.939-5.877,31.297
		c-1.587,18.249,8.498,31.962,26.102,36.696c5.607,1.523,11.523,2.54,17.31,2.522c10.707-0.007,20.538,2.776,29.587,8.043
		c8.883,5.163,18.412,6.733,28.397,7.106c28.905,1.125,54.143-9.383,77.793-24.65c5.045-3.252,10.335-6.837,13.912-11.483
		c16.846-21.844,17.893-45.153,2.76-68.305c-9.739-14.901-17.147-30.836-20.765-48.022c-5.523-26.204-7.055-51.901,7.075-77.179
		c15.577-27.861,10.651-56.018-12.119-78.432c-10.311-10.167-22.767-18.178-34.396-26.965
		C724.034,350.655,720.129,348.53,717.595,352.924z M828.342,395.935c24.586,11.438,50.759,12.864,77.217,9.327
		c12.08-1.618,23.944-4.838,33.312-13.403c10.826-9.883,15.077-22.47,12.063-36.65c-2.832-13.332-12.817-20.51-25.57-22.896
		c-14.967-2.809-30.154-4.348-44.019-6.274c-11.056,1.468-20.803,1.943-30.122,4.18c-15.696,3.768-31.526,7.82-43.344,20.177
		c-9.406,9.826-10.12,21.684-0.389,31.098C813.51,387.306,820.751,392.413,828.342,395.935z M824.153,349.894
		c23.151-11.547,47.563-15.861,73.269-12.055c8.866,1.309,17.964,1.832,26.537,4.242c19.329,5.426,24.182,24.381,10.478,39.402
		c-9.597,10.51-22.604,13.27-35.929,14.768c-4.878,0.549-9.873,0.096-14.815,0.096c-21.771,0.968-42.472-3.021-61.228-14.672
		c-6.052-3.744-12.271-8.392-11.715-16.053C811.297,357.976,817.555,353.186,824.153,349.894z M927.948,597.474
		c-20.661-34.811-51.948-55.114-90.217-65.693c-3.681-1.023-9.033-4.601-11.017,1.475c-2.291,7.02,4.641,6.329,8.432,7.424
		c43.462,12.579,76.298,37.482,93.254,80.549c3.696,9.366,5.742,19.352,9.073,28.885c0.658,1.88,3.616,3.847,5.663,4.038
		c1.428,0.143,3.117-2.736,4.108-3.696c-0.428-2.546-0.548-3.665-0.801-4.76C942.51,628.763,936.848,612.479,927.948,597.474z
		 M215.793,592.968c-2.209,1.317-5.771,2.173-6.4,4.038c-2.788,8.2-4.73,16.688-7.118,25.57c2.363,8.788,4.374,17.48,7.217,25.895
		c0.611,1.801,4.239,2.578,6.488,3.831c0.646-2.515,2.534-5.496,1.765-7.439c-5.933-14.989-5.909-29.702,0.114-44.66
		C218.597,598.362,216.551,595.404,215.793,592.968z M840.689,574.385c-0.999,0.96-4.084,2.643-4.036,4.229
		c0.063,1.936,2.546,5.116,4.378,5.434c18.472,3.021,28.703,14.362,33.843,31.636c0.563,1.92,4.005,2.976,6.114,4.427
		c0.896-2.427,3.22-5.529,2.442-7.162c-4.1-8.622-8.05-17.592-13.848-25.047C863.04,579.47,852.928,576.004,840.689,574.385z
		 M920.668,445.203c-9.851,2.981-19.614,7.011-29.702,8.129c-9.867,1.103-20.074-1.149-30.146-1.292
		c-2.792-0.048-7.368,1.602-8.034,3.537c-1.476,4.275,2.498,5.338,6.114,5.798c7.543,0.96,15.094,2.022,22.62,3.037
		c15.474-0.389,29.956-3.808,43.757-10.54c3.466-1.682,7.138-3.467,4.846-7.859C927.838,441.626,924.078,444.164,920.668,445.203z
		 M901.688,423.139c-24.539,5.013-49.165,3.553-73.3-3.657c-4.133-1.229-9.145-2.743-10.882,2.816
		c-1.919,6.187,3.396,7.535,7.86,8.415c15.363,2.998,30.757,5.782,45.572,8.542c16.846-2.649,32.748-4.228,48.19-7.859
		c14.133-3.316,27.759-8.828,41.583-13.428c3.886-1.293,6.464-3.879,4.861-8.113c-1.657-4.435-5.401-3.975-9.073-2.61
		c-1.681,0.627-3.299,1.452-5.028,1.936C934.904,413.954,918.534,419.712,901.688,423.139z M889.197,527.933
		c-1.205,1.047-3.76,2.189-4.014,3.713c-0.277,1.665,1.135,4.203,2.594,5.424c1.61,1.325,4.133,1.523,6.226,2.301
		c18.035,6.701,31.297,18.226,37.007,37.148c1.039,3.49,2.569,6.068,6.416,5.038c4.546-1.206,3.776-4.807,2.745-8.218
		c-3.339-10.961-8.946-20.581-17.48-28.267C913.348,536.657,902.331,531.28,889.197,527.933z M346.979,663.905
		c-15.054,11.658-22.263,27.655-24.543,48.38c0.908,0.983,2.744,2.974,4.593,4.973c1.757-2.142,4.767-4.124,5.075-6.448
		c2.142-16.053,8.76-29.416,21.208-40.036c1.657-1.419,1.309-5.187,1.896-7.867C352.419,663.184,348.858,662.454,346.979,663.905z
		 M563.385,523.437c2.109-0.572,4.188-3.395,4.945-5.623c0.337-1-2.638-3.109-3.597-4.156c-2.328,0.333-3.244,0.365-4.102,0.603
		c-17.766,4.759-36.098,8.073-53.186,14.609c-53.939,20.637-89.099,59.127-104.886,114.938c-0.933,3.276-2.296,7.154,2.164,8.574
		c4.16,1.341,5.826-1.816,6.881-5.441c17.115-59.174,56.637-96.062,114.546-114.231C538.33,528.893,551.044,526.799,563.385,523.437
		z M500.082,564.853c3.318-1.396,7.526-2.76,5.623-7.471c-2.117-5.227-6.317-2.911-9.677-1.293
		c-5.437,2.625-10.937,5.25-15.985,8.519c-11.824,7.669-20.291,18.186-25.164,31.493c-1.479,4.046-0.964,7.068,4.881,8.305
		c1.063-1.126,2.796-2.411,3.791-4.116c1.682-2.887,2.681-6.162,4.362-9.058C475.337,578.463,486.762,570.476,500.082,564.853z
		 M544.694,668.592c-3.406,0.77-6.547,2.879-9.724,4.569c-36.205,19.319-57.64,48.078-57.659,92.159
		c0.393,17.131,4.282,35.325,10.414,53.084c1.161,3.347,2.435,7.035,6.801,5.694c4.699-1.435,3.506-5.171,2.529-8.938
		c-3.168-12.389-7.105-24.729-8.743-37.348c-4.021-31.075,3.517-58.882,28.147-79.724c9.676-8.178,21.426-13.88,31.971-21.081
		c1.895-1.302,2.549-4.442,3.768-6.726C549.68,669.647,546.959,668.092,544.694,668.592z M538.568,486.231
		c-25.198,5.313-48.979,1.784-71.56-10.747c-2.002-1.118-6.63-0.722-7.927,0.793c-2.757,3.173,0.21,5.433,3.168,7.178
		c16.584,9.771,34.465,14.87,57.585,15.378c4.421-0.65,12.665-1.498,20.724-3.275c2.316-0.516,5.77-3.703,5.706-5.567
		C546.118,485.581,542.113,485.493,538.568,486.231z M831.799,782.571c-9.795-36.294-31.685-61.348-68.002-73.149
		c-18.222-5.933-36.959-7.344-56.009-8.565c-14.951,1.665-30.083,2.387-44.827,5.171c-50.197,9.462-86.221,36.618-103.947,85.704
		c-3.096,8.558-2.319,12.635,2.705,14.459c4.715,1.697,8.066-1.277,11.278-9.613c12.84-33.311,35.452-56.93,69.239-69.271
		c32.966-12.031,66.998-13.665,101.11-7.598c27.097,4.822,50.565,17.599,63.628,43.082c6.566,12.802,10.017,27.283,14.078,41.226
		c1.569,5.354,3.545,9.089,9.287,8.178c5.773-0.92,6.377-5.662,5.488-10.485C834.623,795.3,833.496,788.853,831.799,782.571z
		 M643.124,779.612c-3.037,1.389-6.725,3.038-4.699,7.416c2.173,4.679,5.584,2.768,9.074,1.189
		c23.591-10.667,47.277-10.983,70.983-0.269c1.432,0.634,3.066,2.037,4.251,1.728c2.288-0.586,4.331-2.156,7.841-4.052
		c-3.327-2.856-4.858-4.839-6.877-5.79C696.91,767.137,670.003,767.319,643.124,779.612z M897.39,775.449
		c3.974-1.365,3.562-4.498,2.38-7.813c-3.363-9.296-6.218-18.789-9.922-27.941c-14.126-34.969-34.795-64.885-67.178-85.569
		c-1.832-1.182-3.838-2.118-6.369-3.515c-1.577,1.46-4.227,2.943-4.044,3.911c0.412,2.269,1.753,4.774,3.481,6.345
		c11.627,10.5,24.571,19.788,34.969,31.359c20.065,22.335,31.074,49.761,39.695,78.146
		C891.513,774.005,893.052,776.956,897.39,775.449z M1123.833,934.857c-2.649-8.717-6.106-17.837-11.612-24.872
		c-13.554-17.313-31.398-29.44-52.115-37.11c-5.591-2.063-11.207-4.093-17.107-6.249c1.285-2.776,2.276-5.013,3.354-7.186
		c14.166-28.306,24.531-58,31.448-88.854c11.277-50.426,14.18-101.464,11.135-152.984c-4.798-81.207-18.035-160.939-40.869-238.998
		c-10.842-37.109-21.248-74.441-39.021-109.093c-0.262-0.499-0.031-1.253-0.031-2.419c2.808-0.277,5.465-0.404,8.073-0.801
		c6.226-0.928,10.152-5.473,9.589-10.922c-0.555-5.354-4.751-8.818-10.921-8.684c-3.823,0.095-7.71,0.222-11.429,1.015
		c-5.401,1.149-7.892-1.277-10.478-5.759c-19.36-33.684-41.21-65.717-69.39-92.627c-16.346-15.613-33.129-32.086-52.655-42.801
		c-52.163-28.604-108.935-44.76-167.966-51.866c-66.801-8.042-133.391-5.575-199.58,6.829
		c-78.661,14.744-152.041,43.435-220.995,83.745c-11.841,6.916-24.411,13.237-34.635,22.136
		c-36.316,31.613-67.903,67.573-94.302,107.967c-31.985,48.951-53.578,102.113-66.253,159.227
		C68.301,523.649,63.8,612.725,85.365,702.125c13.012,53.925,34.246,104.224,67.435,149.011
		c8.792,11.866,18.551,23.032,27.996,34.667c-6.831,6.408-13.858,12.706-20.462,19.4c-2.05,2.086-3.743,5.155-4.283,8.01
		c-3.279,17.338,6.211,28.648,24.654,30.242c6.354,0.539,10.783-0.951,14.745-6.639c5.413-7.78,12.276-14.546,18.542-21.771
		c23.147,17.687,45.93,33.2,71.35,43.813c39.413,16.465,79.339,31.692,119.09,47.349c8.066,3.165,16.319,5.861,24.999,8.971
		c-21.47,37.419-35.675,76.433-42.864,118.681c4.641,0,8.685-0.261,12.683,0.072c3.808,0.316,5.377-1.134,6.67-4.75
		c19.059-53.251,48.781-100.123,86.073-142.349c8.966-10.145,20.502-15.196,34.338-13.872c7.809,0.753,12.254,5.242,12.888,13.07
		c0.531,6.56-0.88,11.817-6.689,16.449c-32.53,25.855-59.646,56.747-81.874,91.771c-7.756,12.229-13.859,25.515-20.985,38.808
		c10.401,1.403,10.378,1.388,13.828-5.806c2.042-4.252,4.001-8.566,6.316-12.666c29.021-51.585,68.852-93.144,117.584-126.359
		c8.059-5.48,17.271-7.622,27.002-6.805c16.274,1.371,22.477,11.197,14.597,25.42c-5.583,10.104-12.888,19.582-20.906,27.917
		c-15.561,16.179-32.625,30.829-45.668,49.451c-11.456,16.346-24.114,31.851-36.923,48.602c8.502,2.419,12.495,0.071,16.715-5.759
		c13.582-18.772,28.04-36.919,42.424-55.097c1.186-1.491,4.691-2.436,6.586-1.864c9.055,2.681,17.834,6.282,26.879,8.93
		c4.755,1.389,5.925,3.697,5.062,8.297c-2.888,15.371-5.536,30.789-8.272,46.231c6.17,2.069,9.636-0.508,10.909-7.552
		c2.518-13.896,5.444-27.711,8.371-42.384c42.511,6.567,85.065,7.661,127.883-4.712c2.902,19.678,5.591,33.098,8.279,58.098h14.17
		c-0.27-9-0.255-9.701-0.81-13.404c-2.222-14.91-4.477-30.686-7.059-45.532c-0.714-4.093-0.238-6.913,3.782-9.085
		c12.492-6.75,22.406-16.623,30.354-28.44c1.569-2.332,4.457-4.467,7.153-5.38c17.893-6.021,35.937-11.652,53.845-17.648
		c3.229-1.078,5.195-1.229,7.337,1.832c12.88,18.415,31.296,29.297,51.655,37.49c31.265,12.578,63.854,16.798,97.283,14.91
		c20.931-1.183,41.727-3.681,61.555-11.112c16.361-6.131,30.964-14.919,40.361-30.146
		C1128.37,1000.693,1134.12,968.755,1123.833,934.857z M403.271,1106.948c5.001-23.041,12.618-45.073,23.456-65.813
		c7.166-13.729,15.153-27.053,23.373-40.179c5.433-8.677,13.828-14.007,23.706-16.751c2.019-0.555,4.22-0.492,8.328-0.936
		C448.97,1021.6,422.769,1062.121,403.271,1106.948z M518.911,958.571c-1.056,1.999-2.951,4.062-4.969,4.925
		c-14.27,6.029-28.808,10.383-44.507,12.16c-12.332,1.395-21.493,10.762-28.401,21.23c-2.229,3.387-4.013,5.163-8.574,3.529
		c-53.126-19.059-106.511-37.545-156.969-63.124c-16.941-8.597-32.613-19.693-50.113-30.416
		c17.417-12.92,34.897-18.907,53.571-21.684c27.164-4.045,53.825-0.135,80.326,5.679c54.896,12.032,106.679,32.177,155.784,59.396
		C518.7,952.282,521.067,954.486,518.911,958.571z M613.102,1021.475c3.2-7.369,6.396-12.627,7.705-18.322
		c1.153-5.004-0.009-10.501,0.254-15.768c0.106-2.204,0.539-5.313,2.018-6.399c40.068-29.394,80.271-58.596,120.57-87.664
		c1.61-1.157,4.945-1.696,6.519-0.816c6.425,3.577,12.473,7.828,19.975,12.682C717.333,944.288,665.994,982.311,613.102,1021.475z
		 M788.923,948.262c-20.858,16.766-41.753,33.492-62.64,50.212c-30.559,24.451-61.142,48.872-91.617,73.419
		c-3.767,3.021-7.265,5.146-13.09,1.831c56.616-44.485,112.729-88.575,168.997-132.782
		C794.785,944.827,791.112,946.493,788.923,948.262z M800.979,1019.229c1.499-8.353,2.498-14.975,4.014-21.478
		c0.317-1.356,2.467-3.188,3.854-3.26c11.452-0.548,22.937-0.61,34.389-1.103c6.433-0.278,5.045,4.838,6.988,9.199
		C833.956,1008.086,818.11,1013.432,800.979,1019.229z M849.05,937.958c-0.437,1.722-3.577,3.863-5.528,3.926
		c-12.135,0.356-24.309,0.389-36.444-0.022c-2.125-0.071-5.353-2.396-6.059-4.387c-12.754-36.618-40.029-55.779-76.413-64.092
		c-28.009-6.4-56.415-4.544-84.709-3.387c-21.216,0.889-42.316,3.981-61.76,12.864c-11.727,5.369-22.564,12.809-33.351,20.011
		c-3.529,2.348-5.671,2.76-9.431,0.896c-68.208-33.946-140.429-53.297-216.076-62.26c-44.685-5.274-83.65,5.719-119.864,30.59
		c-1.486,1.023-2.981,2.016-4.496,2.99c-0.366,0.246-0.81,0.396-1.21,0.579c-0.749,0.373-1.487,0.729-2.229,1.103
		c-12.793-16.75-26.791-32.725-38.177-50.379c-39.822-61.848-60.02-130.325-65.868-203.331
		c-6.179-77.281,4.044-152.802,25.938-226.744c17.627-59.492,48.047-112.448,88.19-159.576
		c15.871-18.629,32.558-36.91,50.998-52.908c14.608-12.666,32.018-22.381,48.942-32.065c56.783-32.494,117.171-56.12,180.906-70.929
		c67.907-15.775,136.678-19.57,205.948-12.82c63.363,6.178,123.826,23.52,180.082,53.305c15.545,8.229,28.639,21.68,41.638,34.037
		c27.768,26.363,50.094,57.112,69.2,90.225c0.556,0.952,0.959,1.983,1.928,3.99c-8.915,1.229-17.267,2.355-25.61,3.497
		c-70.492,9.692-138.953,27.378-205.647,52.052c-6.507,2.412-9.252,7.646-7.193,13.119c2.11,5.6,7.634,7.534,14.637,5.354
		c33.069-10.295,65.944-21.225,99.271-30.591c40.773-11.46,82.57-18.099,124.574-23.39c7.511-0.951,11.833,0.08,15.688,7.758
		c14.118,28.147,22.676,58.262,31.916,88.083c18.408,59.437,31.629,120.078,39.037,181.878c5.877,48.982,9.691,98.124,6.051,147.527
		c-4.211,57.129-17.012,111.979-43.313,163.287c-2.339,4.561-4.75,5.789-9.834,5.266c-38.831-3.965-76.9-0.325-113.526,13.744
		C878.466,888.207,856.965,906.606,849.05,937.958z M856.267,980.525c-2.332-12.523-1.999-13.603,7.154-19.439
		c45.509-29.052,91.041-58.049,136.599-86.997c1.649-1.047,3.734-2.26,5.512-2.109c10.842,0.896,21.668,2.173,32.51,3.314
		c0.111,0.793,0.23,1.587,0.35,2.388C977.892,911.841,917.393,946.001,856.267,980.525z M1025.59,947.302
		c-45.55,26.355-91.153,52.623-136.623,79.104c-4.988,2.904-8.843,4.053-12.483-2.727c9.858-5.537,19.725-11.113,29.631-16.624
		c60.309-33.63,120.594-67.257,180.949-100.79c2.149-1.189,4.846-1.38,7.281-2.038c0.206,0.943,0.428,1.903,0.642,2.855
		C1071.853,920.485,1048.725,933.922,1025.59,947.302z M550.448,468.307c10.307-0.675,20.661-1.008,30.9-2.292
		c2.471-0.31,4.536-3.76,6.793-5.767c-2.085-1.863-3.897-4.386-6.333-5.377c-2.069-0.856-4.858-0.008-7.325,0.19
		c-34.627,2.95-68.969,0.627-102.089-9.819c-21.546-6.796-42.115-16.647-63.108-25.157c-3.621-1.459-7.563-3.45-10.014,1.229
		c-2.344,4.449,0.654,6.892,4.438,8.891C449.608,454.49,498.278,467.934,550.448,468.307z M722.71,481.853
		c-7.982-3.299-16.322-5.75-25.189-8.725c-8.815,2.951-17.35,5.473-25.546,8.828c-1.709,0.698-2.174,4.473-3.204,6.845
		c2.55,0.372,5.675,1.896,7.554,0.943c14.153-7.09,27.981-7.059,42.143-0.016c1.848,0.929,4.938-0.667,7.455-1.103
		C724.875,486.302,724.419,482.56,722.71,481.853z M591.647,227.032c8.098,0.031,16.188,0.016,24.289,0.016
		c0.063,0.793,0.13,1.587,0.202,2.388c28.357-2.998,56.883-4.909,85.011-9.367c19.665-3.101,38.779-9.651,58.115-14.76
		c3.533-0.928,6.888-3.172,4.897-7.059c-0.849-1.665-5.061-1.95-7.796-2.188c-1.653-0.151-3.411,0.991-5.128,1.563
		c-24.614,8.192-49.813,13.689-75.604,16.727c-27.997,3.308-56.03,4.496-84.187,3.053c-3.497-0.174-8.105-0.666-7.911,4.696
		C583.704,226.937,587.936,227.032,591.647,227.032z M479.044,254.981c0.933,0.706,2.602,0.508,3.942,0.596
		c31.185,2.062,62.37,4.107,88.849,5.845c29.063-1.443,53.369-2.03,77.575-3.981c54.828-4.401,108.752-14.292,161.808-28.83
		c8.462-2.324,16.956-4.473,25.379-6.947c3.427-1.016,8.512-1.475,6.838-7.035c-1.491-4.973-5.623-3.141-9.082-2.244
		c-1.308,0.332-2.593,0.705-3.918,1.015c-38.094,8.732-75.925,18.995-114.359,25.856c-74.37,13.26-149.387,14.949-224.575,7.479
		c-3.798-0.381-7.682-1.261-11.393-0.849c-2.05,0.238-3.847,2.713-5.763,4.18C475.892,251.73,477.256,253.642,479.044,254.981z
		 M683.261,500.539c-1.535,1.205-1.464,4.457-2.134,6.781c2.141,0.476,4.846,2.038,6.324,1.261
		c15.569-8.201,30.877-8.113,46.366,0.183c3.529,1.888,7.012-0.659,6.733-5.195c-0.531-0.675-1.277-2.077-2.403-2.998
		C725.677,490.442,696.264,490.269,683.261,500.539z M447.229,280.076c48.4,8.692,97.133,13.562,150.229,13.308
		c47.393,0.619,98.168-5.035,148.511-13.998c50.751-9.041,100.457-22.588,149.28-39.243c3.736-1.276,8.241-2.221,6.774-7.305
		c-1.579-5.504-6.116-2.879-9.645-2.109c-1.754,0.38-3.411,1.126-5.14,1.649c-21.51,6.575-42.836,13.745-64.545,19.582
		c-69.353,18.631-139.842,30.52-211.762,31.114c-33.684,0.27-67.438-1.927-101.075-4.347c-20.351-1.467-40.52-5.52-60.788-8.359
		c-3.545-0.5-7.888-1.523-8.76,3.434C439.477,278.593,443.422,279.386,447.229,280.076z M348.311,306.272
		c3.054,0.643,6.258,0.579,9.398,0.698c56.054,2.069,111.734,7.979,166.9,17.893c34.053,6.123,67.747,14.213,101.621,21.366
		c7.472,1.578,12.401-1.007,13.896-6.971c1.455-5.767-2.003-10.398-9.467-12.143c-17.504-4.085-35-8.225-52.587-11.969
		c-68.537-14.577-137.74-24.127-207.772-28.061c-6.751,0-13.483,0.031-20.225-0.008c-5.949-0.023-9.475,3.165-10.108,8.748
		C339.306,301.657,342.826,305.131,348.311,306.272z M344.615,428.611c-16.524,3.974-33.058,7.962-49.443,12.507
		c-1.986,0.555-3.073,4.387-4.576,6.678c2.24,0.857,4.724,2.84,6.687,2.412c19.439-4.22,38.811-8.772,58.155-13.443
		c2.042-0.5,3.751-2.324,7.435-4.728c-3.62-2.229-5.523-4.274-7.59-4.466C351.773,427.278,348.08,427.786,344.615,428.611z
		 M380.737,391.913c-11.896-0.15-23.856-0.967-35.697-0.15c-31.317,2.174-59.881,13.508-87.339,27.965
		c-3.351,1.762-7.863,3.436-5.214,8.368c2.624,4.861,6.516,2.109,9.921,0.389c0.802-0.405,1.57-0.88,2.372-1.285
		c30.955-15.989,63.23-27.006,98.663-26.49c6.738,0.412,13.464,1.087,20.197,1.103c1.705,0,4.838-2.109,4.822-3.229
		c-0.017-1.959-1.646-4.227-3.197-5.742C384.342,391.921,382.292,391.938,380.737,391.913z M263.047,348.997
		c2.099-1.063,3.76-3.132,5.401-4.964c18.281-20.352,26.269-44.51,26.269-73.769c-0.159-2.76-0.321-7.709-0.77-12.618
		c-0.31-3.394-1.75-6.82-5.73-5.487c-1.805,0.594-2.729,4.1-3.815,6.408c-0.321,0.682,0.227,1.744,0.294,2.641
		c2.225,29.766-4.576,56.589-25.606,78.82c-0.903,0.967-2.296,2.006-2.395,3.125c-0.163,1.783-0.032,4.299,1.07,5.321
		C258.828,349.474,261.64,349.712,263.047,348.997z"/>
</g>
</svg>
